<?xml version="1.0" standalone="no"?>
<!DOCTYPE svg PUBLIC "-//W3C//DTD SVG 20010904//EN"
 "http://www.w3.org/TR/2001/REC-SVG-20010904/DTD/svg10.dtd">
<svg version="1.0" xmlns="http://www.w3.org/2000/svg"
 width="320.000000pt" height="320.000000pt" viewBox="0 0 320.000000 320.000000"
 preserveAspectRatio="xMidYMid meet">
<metadata>
Created by potrace 1.15, written by Peter Selinger 2001-2017
</metadata>
<g transform="translate(0.000000,320.000000) scale(0.100000,-0.100000)"
fill="#000000" stroke="none">
<path d="M657 2453 c-4 -3 -7 -388 -7 -855 l0 -848 588 2 587 3 0 850 0 850
-581 3 c-319 1 -584 -1 -587 -5z m1001 -165 c9 -9 12 -174 12 -682 0 -369 -4
-677 -8 -684 -7 -10 -99 -12 -428 -10 l-419 3 -3 680 c-1 374 0 686 3 693 6
17 825 18 843 0z"/>
<path d="M1155 1822 c-77 -26 -121 -66 -157 -140 -33 -66 -33 -68 -33 -212 0
-144 0 -146 33 -212 22 -46 46 -76 75 -98 78 -57 192 -75 294 -45 53 16 130
66 140 91 6 16 -24 53 -70 86 l-27 20 -31 -26 c-58 -49 -152 -53 -201 -9 -42
38 -52 73 -53 183 0 121 5 147 41 189 49 59 146 61 212 6 17 -14 33 -25 36
-25 13 0 96 83 96 96 0 20 -71 73 -128 94 -66 25 -159 26 -227 2z"/>
<path d="M2022 833 l3 -78 263 -3 262 -2 0 80 0 80 -265 0 -266 0 3 -77z"/>
</g>
</svg>
